<?xml version="1.0" encoding="UTF-8" standalone="no"?>
<svg
   xmlns:dc="http://purl.org/dc/elements/1.1/"
   xmlns:cc="http://creativecommons.org/ns#"
   xmlns:rdf="http://www.w3.org/1999/02/22-rdf-syntax-ns#"
   xmlns:svg="http://www.w3.org/2000/svg"
   xmlns="http://www.w3.org/2000/svg"
   xmlns:sodipodi="http://sodipodi.sourceforge.net/DTD/sodipodi-0.dtd"
   xmlns:inkscape="http://www.inkscape.org/namespaces/inkscape"
   version="1.0"
   width="473.000000pt"
   height="387.000000pt"
   viewBox="0 0 473.000000 387.000000"
   preserveAspectRatio="xMidYMid meet"
   id="svg3839"
   sodipodi:docname="no-found.svg"
   inkscape:export-filename="/home/okupa/sin resultados.png"
   inkscape:export-xdpi="96"
   inkscape:export-ydpi="96"
   inkscape:version="0.92.3 (2405546, 2018-03-11)">
  <metadata
     id="metadata3845">
    <rdf:RDF>
      <cc:Work
         rdf:about="">
        <dc:format>image/svg+xml</dc:format>
        <dc:type
           rdf:resource="http://purl.org/dc/dcmitype/StillImage" />
        <dc:title></dc:title>
      </cc:Work>
    </rdf:RDF>
  </metadata>
  <defs
     id="defs3843" />
  <sodipodi:namedview
     pagecolor="#ffffff"
     bordercolor="#666666"
     borderopacity="1"
     objecttolerance="10"
     gridtolerance="10"
     guidetolerance="10"
     inkscape:pageopacity="0"
     inkscape:pageshadow="2"
     inkscape:window-width="1299"
     inkscape:window-height="713"
     id="namedview3841"
     showgrid="false"
     inkscape:zoom="0.45736434"
     inkscape:cx="-191.9209"
     inkscape:cy="258"
     inkscape:window-x="67"
     inkscape:window-y="27"
     inkscape:window-maximized="1"
     inkscape:current-layer="svg3839" />
  <g
     transform="translate(0.000000,387.000000) scale(0.100000,-0.100000)"
     fill="#000000"
     stroke="none"
     id="g3837"
     style="fill:#cccccc">
    <path
       d="M2127 3609 c-15 -20 -17 -20 -38 -5 -44 30 -74 21 -107 -32 -27 -44 -36 -50 -116 -80 -47 -18 -111 -46 -142 -62 l-55 -30 -40 21 c-66 33 -76 24 -104 -93 -5 -18 -33 -47 -87 -88 -77 -60 -81 -61 -112 -49 -17 7 -35 16 -41 21 -12 11 -62 10 -69 -1 -3 -5 -1 -45 4 -90 13 -100 6 -118 -106 -287 -84 -128 -120 -201 -164 -332 -15 -48 -44 -130 -63 -182 -19 -52 -56 -166 -82 -252 -27 -87 -51 -158 -55 -158 -13 0 -91 173 -136 299 -24 68 -61 155 -82 194 -36 68 -39 71 -121 110 -101 49 -177 58 -175 20 0 -20 -4 -21 -72 -21 -80 1 -104 -10 -104 -47 0 -28 65 -88 111 -104 19 -6 74 -15 123 -20 86 -10 110 -20 143 -61 14 -18 67 -157 83 -218 28 -107 130 -346 173 -404 56 -76 126 -6 198 200 17 48 34 90 38 95 4 4 18 -23 31 -60 49 -145 142 -342 200 -428 44 -66 47 -73 24 -55 -10 8 2 -9 28 -38 60 -68 233 -233 289 -277 49 -37 286 -158 364 -186 58 -20 56 -16 74 -219 6 -63 21 -185 35 -270 21 -136 23 -156 10 -167 -9 -6 -53 -16 -99 -23 -46 -7 -92 -18 -102 -25 -17 -12 -17 -15 0 -49 17 -36 17 -36 79 -35 35 0 109 4 166 8 135 10 141 15 118 108 -38 157 -68 354 -89 585 -6 66 -1 71 64 56 59 -13 373 -18 426 -6 23 5 31 4 28 -5 -3 -7 -14 -79 -25 -162 -12 -82 -37 -211 -55 -285 -48 -195 -52 -226 -27 -239 12 -6 79 -11 160 -11 124 0 141 2 156 19 23 26 17 63 -14 78 -14 7 -47 13 -75 13 -27 0 -61 3 -74 7 -23 6 -23 9 -18 69 9 92 112 536 132 569 7 11 57 47 111 80 73 44 133 94 232 190 155 149 229 245 309 394 69 128 103 227 133 386 12 66 26 129 29 139 8 21 2 33 101 -224 84 -221 113 -260 178 -245 38 8 45 17 67 85 10 30 80 182 156 337 99 202 146 287 165 299 20 14 61 19 189 25 182 9 230 21 241 63 3 15 1 32 -6 40 -14 18 -95 36 -161 36 -48 0 -49 0 -43 27 l7 26 -74 -6 c-106 -8 -169 -30 -222 -77 -40 -36 -64 -76 -177 -306 -72 -145 -134 -264 -139 -264 -5 0 -12 -12 -15 -26 -4 -14 -12 -24 -19 -21 -14 4 -88 192 -231 587 -89 243 -142 363 -185 412 -20 24 -56 69 -81 101 -55 74 -172 182 -265 246 -38 27 -137 84 -219 127 l-149 79 -25 55 c-13 30 -29 58 -35 62 -27 18 -57 7 -84 -29 -15 -21 -27 -39 -28 -39 0 -1 -30 4 -67 12 -83 17 -160 47 -201 78 -78 57 -84 59 -100 35z m-47 -80 c16 -29 62 -22 70 11 l6 25 15 -29 c12 -26 26 -33 114 -57 160 -43 164 -47 80 -78 -72 -27 -120 -52 -197 -101 -38 -25 -68 -38 -78 -34 -58 25 -161 55 -252 74 -60 12 -108 26 -108 31 0 10 192 104 233 114 19 5 34 20 48 46 17 34 22 38 39 29 11 -6 24 -20 30 -31z m518 -53 c33 -62 49 -74 210 -165 193 -108 260 -150 266 -167 3 -8 11 -14 19 -14 18 0 164 -152 206 -213 30 -43 53 -89 131 -262 23 -49 50 -124 94 -260 61 -185 207 -521 248 -572 6 -7 23 -13 38 -13 34 0 40 8 73 90 37 96 204 447 240 508 27 46 42 58 102 87 39 19 88 37 110 40 l40 6 -28 -16 c-48 -28 -28 -40 57 -36 112 5 188 -6 184 -27 -4 -23 -43 -29 -188 -31 -153 -2 -198 -11 -228 -48 -12 -15 -97 -178 -188 -362 -165 -333 -165 -333 -186 -315 -28 26 -58 93 -141 314 -40 107 -119 270 -131 270 -15 0 -36 -48 -36 -82 0 -43 -29 -214 -50 -298 -27 -107 -103 -294 -145 -356 -124 -188 -305 -383 -425 -459 -169 -107 -209 -153 -220 -257 -5 -40 -27 -152 -49 -248 -22 -96 -43 -207 -47 -246 -7 -70 -6 -72 20 -89 17 -12 54 -20 101 -23 114 -7 79 -22 -52 -22 l-115 0 4 43 c6 54 74 414 93 488 20 79 27 152 17 166 -6 10 -30 10 -118 -1 -211 -26 -454 10 -713 105 -240 88 -394 206 -553 424 -127 174 -268 488 -268 596 0 37 -9 59 -25 59 -14 0 -15 -3 -79 -176 -79 -214 -94 -235 -139 -201 -17 12 -125 241 -147 312 -7 22 -27 81 -46 130 -18 50 -35 100 -39 112 -3 11 -25 39 -49 61 -36 33 -52 40 -102 46 -133 16 -234 56 -234 93 0 13 11 14 73 8 39 -4 82 -11 95 -16 35 -13 62 -11 62 6 0 8 -4 15 -8 15 -5 0 -17 7 -28 14 -15 12 -7 12 39 -2 36 -11 75 -32 105 -58 50 -44 68 -79 156 -310 41 -110 108 -245 130 -264 23 -19 57 -1 78 41 10 19 45 124 78 234 34 110 65 211 70 225 4 14 18 61 30 105 31 108 72 197 162 345 120 200 122 203 114 282 -7 82 0 85 71 30 66 -52 190 -135 238 -159 40 -20 195 -73 214 -73 5 0 39 38 75 84 70 90 172 190 238 234 23 15 59 39 82 54 23 15 105 55 182 90 l142 63 26 53 c14 28 29 52 33 52 5 0 19 -20 31 -44z m-967 -122 c33 -37 88 -59 204 -84 55 -12 120 -31 145 -42 l45 -19 -35 -30 c-72 -62 -122 -116 -163 -172 -41 -57 -43 -58 -82 -52 -63 10 -215 81 -279 131 l-58 46 43 44 c24 25 60 56 81 70 39 27 42 33 53 97 7 44 14 46 46 11z m375 -2565 c17 -170 52 -433 69 -523 8 -44 13 -81 10 -84 -9 -9 -213 -25 -231 -18 -30 12 0 23 82 31 112 10 111 10 91 146 -10 63 -22 166 -28 229 -5 63 -17 161 -25 217 -15 101 -13 128 9 120 7 -2 17 -49 23 -118z"
       id="path3825"
       style="fill:#cccccc" />
    <path
       d="M1661 2770 c-94 -40 -160 -144 -188 -295 -15 -84 -17 -88 -49 -101 -44 -18 -43 -39 2 -54 20 -7 63 -38 94 -69 32 -31 84 -69 115 -85 50 -25 65 -28 124 -24 69 5 126 28 178 72 38 32 86 131 79 161 -5 19 -2 22 19 17 14 -2 32 -1 41 2 14 6 11 12 -19 40 -21 19 -37 42 -37 52 0 29 -48 145 -78 189 -15 22 -46 53 -69 69 -35 24 -54 29 -115 32 -40 2 -84 -1 -97 -6z m194 -70 c37 -23 74 -98 100 -202 10 -37 24 -73 31 -79 12 -10 12 -14 1 -28 -8 -9 -20 -32 -27 -51 -25 -67 -107 -136 -183 -154 -62 -15 -199 48 -250 116 l-26 33 19 112 c28 169 62 228 147 258 59 21 149 19 188 -5z"
       id="path3827"
       style="fill:#cccccc" />
    <path
       d="M1705 2560 c-14 -15 -17 -31 -13 -74 5 -66 20 -86 63 -86 27 0 35 6 48 32 13 27 13 37 1 77 -21 69 -63 91 -99 51z m60 -80 c0 -18 -5 -35 -12 -37 -14 -5 -28 40 -19 63 10 27 31 9 31 -26z"
       id="path3829"
       style="fill:#cccccc" />
    <path
       d="M2543 2755 c-28 -14 -68 -47 -92 -75 -41 -48 -49 -64 -85 -162 -14 -38 -22 -47 -44 -50 -37 -4 -41 -34 -5 -41 21 -5 33 -17 47 -48 25 -56 68 -103 114 -125 l37 -19 -42 -3 c-88 -6 -155 29 -212 112 -38 55 -58 131 -66 251 -7 117 -11 135 -31 135 -11 0 -14 -24 -14 -129 0 -226 49 -494 105 -578 76 -116 235 -172 348 -124 76 33 147 155 147 252 0 45 4 54 33 77 52 43 187 185 187 198 0 7 -13 17 -29 22 -28 10 -28 12 -35 108 -8 109 -21 142 -68 178 -71 53 -210 63 -295 21z m247 -52 c27 -25 32 -39 45 -121 9 -51 22 -110 30 -130 15 -35 15 -37 -19 -87 -59 -85 -89 -109 -128 -101 -18 4 -65 8 -103 10 -80 3 -116 19 -168 72 -48 50 -63 95 -44 126 8 13 20 39 26 60 13 40 75 115 124 150 37 26 106 46 164 47 33 1 50 -5 73 -26z m-527 -428 c61 -77 182 -104 291 -66 85 30 112 28 136 -11 11 -18 20 -45 20 -59 0 -49 -33 -122 -73 -162 l-39 -39 -72 4 c-86 6 -123 24 -192 93 -42 42 -56 65 -74 121 -25 82 -40 154 -31 154 3 0 19 -16 34 -35z"
       id="path3831"
       style="fill:#cccccc" />
    <path
       d="M2600 2588 c-39 -64 -19 -158 32 -158 26 0 68 58 68 93 0 42 -34 97 -60 97 -12 0 -28 -13 -40 -32z m60 -54 c0 -33 -18 -66 -31 -58 -10 6 -4 67 8 87 8 14 23 -4 23 -29z"
       id="path3833"
       style="fill:#cccccc" />
    <path
       d="M1955 1921 c-42 -19 -77 -46 -114 -87 -69 -77 -85 -108 -71 -135 18 -32 42 -18 74 39 30 57 100 129 144 149 15 7 52 12 82 12 74 1 144 -33 198 -94 33 -38 45 -46 54 -37 16 16 -14 73 -57 109 -91 77 -204 93 -310 44z"
       id="path3835"
       style="fill:#cccccc" />
  </g>
</svg>
